<mxfile host="app.diagrams.net" modified="2024-01-30T14:18:58.931Z" agent="Mozilla/5.0 (Macintosh; Intel Mac OS X 10_15_7) AppleWebKit/605.1.15 (KHTML, like Gecko) Version/17.3 Safari/605.1.15" version="23.0.2" etag="jgMZ6FyLL0M3r73_dXi-" type="github">
  <diagram name="Page-1" id="_QFqcmUP1c6B_NQthYF4">
    <mxGraphModel>
      <root>
        <mxCell id="0" />
        <mxCell id="1" parent="0" />
      </root>
    </mxGraphModel>
  </diagram>
</mxfile>
